<?xml version="1.0" encoding="utf-8"?>
<!-- Generator: Adobe Illustrator 24.1.3, SVG Export Plug-In . SVG Version: 6.00 Build 0)  -->
<svg version="1.1" id="Слой_1" xmlns="http://www.w3.org/2000/svg" xmlns:xlink="http://www.w3.org/1999/xlink" x="0px" y="0px"
	 viewBox="0 0 461 392" style="enable-background:new 0 0 461 392;" xml:space="preserve">
<style type="text/css">
	.st0{fill:#E0E0E0;}
	.st1{fill:#F5F5F5;}
	.st2{fill:#E6E6E6;}
	.st3{fill:#EBEBEB;}
	.st4{fill:#FAFAFA;}
	.st5{fill:#F0F0F0;}
	.st6{fill:#263238;}
	.st7{opacity:0.1;fill:#FFFFFF;enable-background:new    ;}
	.st8{opacity:0.2;fill:#FFFFFF;enable-background:new    ;}
	.st9{fill:#6698CA;}
	.st10{opacity:0.3;enable-background:new    ;}
	.st11{opacity:0.1;enable-background:new    ;}
	.st12{opacity:0.4;fill:#FFFFFF;enable-background:new    ;}
	.st13{fill:#FFFFFF;}
	.st14{opacity:0.2;}
	.st15{opacity:0.1;fill:#FFFFFF;stroke:#263238;stroke-linecap:round;stroke-linejoin:round;enable-background:new    ;}
	.st16{opacity:0.5;enable-background:new    ;}
	.st17{fill:#A02724;}
	.st18{fill:#FF8B7B;}
	.st19{fill:none;stroke:#263238;stroke-linecap:round;stroke-linejoin:round;}
	.st20{opacity:0.2;enable-background:new    ;}
	.st21{opacity:0.3;}
	.st22{opacity:0.8;fill:#FFFFFF;enable-background:new    ;}
	.st23{opacity:0.4;fill:#263238;enable-background:new    ;}
</style>
<rect x="24" y="348.3" class="st0" width="42.9" height="0.3"/>
<rect x="111.5" y="346.3" class="st0" width="43.1" height="0.3"/>
<rect x="200.1" y="346.3" class="st0" width="10.4" height="0.3"/>
<rect x="58.2" y="354.9" class="st0" width="48.2" height="0.3"/>
<rect x="250.6" y="348.2" class="st0" width="22.5" height="0.3"/>
<rect x="282.4" y="348.2" class="st0" width="29.1" height="0.3"/>
<rect x="386.8" y="352.4" class="st0" width="65.1" height="0.3"/>
<rect y="338.5" class="st0" width="461" height="0.3"/>
<g id="freepik--Shadows--inject-2">
	<g id="freepik--Shadow--inject-214--inject-2">
		<ellipse id="freepik--path--inject-214--inject-2" class="st1" cx="224" cy="365.8" rx="193.9" ry="11.3"/>
	</g>
</g>
<g>
	<path class="st2" d="M216.4,297.6H15.2c-3.3,0-5.9-2.6-5.9-5.7V20.1c0-3.1,2.7-5.7,5.9-5.7h201.2c3.3,0,5.9,2.6,5.9,5.7l0,0v271.7
		C222.4,295,219.7,297.6,216.4,297.6z M15.2,14.7c-3.1,0-5.7,2.4-5.7,5.5v271.7c0,3,2.5,5.5,5.7,5.5h201.2c3.1,0,5.7-2.5,5.7-5.5
		V20.1c0-3-2.5-5.5-5.7-5.5H15.2z"/>
	<path class="st2" d="M441.8,297.6H240.6c-3.3,0-5.9-2.6-5.9-5.7V20.1c0-3.1,2.7-5.7,5.9-5.7h201.2c3.3,0,5.9,2.5,5.9,5.7v271.7
		C447.7,295,445.1,297.6,441.8,297.6z M240.6,14.7c-3.1,0-5.7,2.5-5.7,5.5v271.7c0,3,2.5,5.5,5.7,5.5h201.2c3.1,0,5.7-2.4,5.7-5.5
		V20.1c0-3-2.6-5.5-5.7-5.5H240.6z"/>
	<rect x="52.9" y="56.1" class="st0" width="1.9" height="140.5"/>
	<rect x="169.7" y="56.1" class="st0" width="1.9" height="140.5"/>
	<polygon class="st3" points="178.9,64.9 45.6,64.9 42.8,58.6 181.7,58.6 	"/>
	<polygon class="st3" points="178.9,73.6 45.6,73.6 42.8,67.3 181.7,67.3 	"/>
	<polygon class="st3" points="178.9,82.3 45.6,82.3 42.8,75.9 181.7,75.9 	"/>
	<polygon class="st3" points="178.9,90.9 45.6,90.9 42.8,84.6 181.7,84.6 	"/>
	<polygon class="st3" points="178.9,99.6 45.6,99.6 42.8,93.3 181.7,93.3 	"/>
	<polygon class="st3" points="178.9,108.2 45.6,108.2 42.8,101.9 181.7,101.9 	"/>
	<polygon class="st3" points="178.9,116.9 45.6,116.9 42.8,110.6 181.7,110.6 	"/>
	<polygon class="st3" points="178.9,125.6 45.6,125.6 42.8,119.2 181.7,119.2 	"/>
	<polygon class="st3" points="178.9,134.2 45.6,134.2 42.8,127.9 181.7,127.9 	"/>
	<polygon class="st3" points="178.9,142.9 45.6,142.9 42.8,136.6 181.7,136.6 	"/>
	<polygon class="st3" points="178.9,151.5 45.6,151.5 42.8,145.2 181.7,145.2 	"/>
	<polygon class="st3" points="178.9,160.2 45.6,160.2 42.8,153.9 181.7,153.9 	"/>
	<polygon class="st3" points="178.9,168.8 45.6,168.8 42.8,162.5 181.7,162.5 	"/>
	<polygon class="st3" points="178.9,177.5 45.6,177.5 42.8,171.2 181.7,171.2 	"/>
	<polygon class="st3" points="178.9,186.2 45.6,186.2 42.8,179.9 181.7,179.9 	"/>
	<polygon class="st3" points="178.9,194.8 45.6,194.8 42.8,188.5 181.7,188.5 	"/>
	<rect x="42.8" y="194.8" class="st0" width="139" height="3.6"/>
	<rect x="37.9" y="50.7" class="st0" width="148.6" height="8.4"/>
	<path class="st0" d="M39.4,135.4L39.4,135.4c-0.8,0-1.5-0.6-1.5-1.5V84.9c0-0.8,0.7-1.5,1.5-1.5l0,0c0.8,0,1.5,0.7,1.5,1.5v49.1
		C40.9,134.7,40.3,135.4,39.4,135.4z"/>
	<rect x="38.9" y="57.5" class="st0" width="1.1" height="29.1"/>
	<rect x="345.3" y="246.5" class="st2" width="79" height="81.7"/>
	<rect x="426.4" y="240.4" class="st2" width="9.9" height="98.4"/>
	<rect x="357.8" y="252.9" class="st4" width="6.5" height="30.5"/>
	<rect x="384.7" y="252.9" class="st1" width="6.5" height="30.5"/>
	<rect x="364.3" y="255" class="st1" width="6.5" height="28.4"/>
	<rect x="378.2" y="255" class="st4" width="6.5" height="28.4"/>
	<rect x="374" y="252.9" class="st3" width="4.2" height="30.5"/>
	<rect x="370.8" y="255" class="st4" width="3.2" height="28.4"/>
	<rect x="391.1" y="252.9" class="st3" width="6.5" height="30.5"/>
	<rect x="397.6" y="255" class="st2" width="6.5" height="28.4"/>
	<rect x="411.5" y="255" class="st2" width="6.5" height="28.4"/>
	<rect x="407.3" y="252.9" class="st4" width="4.2" height="30.5"/>
	<rect x="404.1" y="255" class="st3" width="3.2" height="28.4"/>
	<rect x="418" y="253.6" class="st4" width="3.2" height="29.8"/>
	<rect x="414.7" y="293.8" class="st4" width="6.5" height="30.5"/>
	<rect x="387.9" y="293.8" class="st4" width="6.5" height="30.5"/>
	<rect x="408.3" y="295.9" class="st5" width="6.5" height="28.4"/>
	<rect x="394.4" y="295.9" class="st3" width="6.5" height="28.4"/>
	<rect x="400.9" y="293.8" class="st4" width="4.2" height="30.5"/>
	<rect x="405" y="295.9" class="st1" width="3.2" height="28.4"/>
	<rect x="381.4" y="293.8" class="st3" width="6.5" height="30.5"/>
	<rect x="375" y="295.9" class="st1" width="6.5" height="28.4"/>
	<rect x="361.1" y="295.9" class="st2" width="6.5" height="28.4"/>
	<rect x="367.5" y="293.8" class="st4" width="4.2" height="30.5"/>
	<rect x="353.7" y="293.8" class="st4" width="4.2" height="30.5"/>
	<rect x="371.7" y="295.9" class="st3" width="3.2" height="28.4"/>
	<rect x="357.8" y="294.5" class="st5" width="3.2" height="29.8"/>
	<path class="st5" d="M423.9,240.4h-81.1v92.9h78.5v5.5h5.3v-98.4H423.9z M421.2,324.3h-73.5v-35.8h73.5V324.3z M421.2,283.4h-73.5
		v-34.2h73.5V283.4z"/>
	<rect x="266.1" y="246.5" class="st2" width="79" height="81.7"/>
	<rect x="269.2" y="332.2" class="st2" width="9.9" height="6.5"/>
	<rect x="336" y="252.9" class="st4" width="6.5" height="30.5"/>
	<rect x="309.2" y="252.9" class="st1" width="6.5" height="30.5"/>
	<rect x="329.5" y="255" class="st1" width="6.5" height="28.4"/>
	<rect x="315.6" y="255" class="st4" width="6.5" height="28.4"/>
	<rect x="322.1" y="252.9" class="st3" width="4.2" height="30.5"/>
	<rect x="326.3" y="255" class="st4" width="3.2" height="28.4"/>
	<rect x="307" y="252.9" class="st3" width="6.5" height="30.5"/>
	<rect x="300.5" y="255" class="st2" width="6.5" height="28.4"/>
	<rect x="286.6" y="255" class="st2" width="6.5" height="28.4"/>
	<rect x="293.1" y="252.9" class="st4" width="4.2" height="30.5"/>
	<rect x="297.2" y="255" class="st3" width="3.2" height="28.4"/>
	<rect x="283.4" y="253.6" class="st1" width="3.2" height="29.8"/>
	<rect x="280.3" y="293.8" class="st4" width="6.5" height="30.5"/>
	<rect x="307.2" y="293.8" class="st4" width="6.5" height="30.5"/>
	<rect x="286.8" y="295.9" class="st1" width="6.5" height="28.4"/>
	<rect x="300.7" y="295.9" class="st3" width="6.5" height="28.4"/>
	<rect x="296.5" y="293.8" class="st4" width="4.2" height="30.5"/>
	<rect x="293.3" y="295.9" class="st1" width="3.2" height="28.4"/>
	<rect x="309.4" y="293.8" class="st3" width="6.5" height="30.5"/>
	<rect x="315.8" y="295.9" class="st1" width="6.5" height="28.4"/>
	<rect x="329.7" y="295.9" class="st2" width="6.5" height="28.4"/>
	<rect x="325.5" y="293.8" class="st4" width="4.2" height="30.5"/>
	<rect x="338.6" y="293.8" class="st4" width="4.2" height="30.5"/>
	<rect x="322.3" y="295.9" class="st3" width="3.2" height="28.4"/>
	<rect x="336.2" y="294.5" class="st3" width="3.2" height="29.8"/>
	<path class="st5" d="M263.9,240.4v98.4h5.3v-5.5h78.4v-92.9H263.9z M269.2,288.5h73.5v35.8h-73.5L269.2,288.5z M269.2,249.3h73.5
		v34.2h-73.5L269.2,249.3z"/>
	<path class="st3" d="M65.6,306.2c0,0-7.6-34.4,6.3-53.1s-12.5-0.2-15.5,17.2c0,0-4.5-31.2,8.9-53.2s-11.7-4-13.8,18.7
		c0,0-4.1-27.9,2.1-43.5s-4.6-5.6-8.7,4.2s1.3,34.1,1.3,34.1s-10.7-44.9-20.9-41.3s15.2,33,18.8,48.3c0,0-12-20.6-21.1-16.3
		c-9.1,4.3,14.1,6.4,24.7,37.1l3.7,14.4c0,0-11.1-20.3-18.3-13.9c-7.2,6.4,21.4,17.5,28,48.3L65.6,306.2z"/>
	<path class="st3" d="M39.2,316.7h52.1l0,0v11c0,6.1-5.1,11-11.5,11H50.7c-6.3,0-11.5-4.9-11.5-11V316.7L39.2,316.7z"/>
	<path class="st1" d="M36.8,304h56.9c2.4,0,4.4,1.9,4.4,4.2v11.3c0,2.3-2,4.2-4.4,4.2H36.8c-2.4,0-4.4-1.9-4.4-4.2v-11.3
		C32.4,305.9,34.4,304,36.8,304z"/>
	<path class="st1" d="M64.1,308.2c0,0-1.6-43.4-24-61.8s14.9-3.8,24,16.2c0,0-4.3-38.7-27.1-61.2s12.8-8,22.3,18.5
		c0,0-3.7-34.5-16-51.5s3.7-8,11.7,2.6c8,10.6,9,41.2,9,41.2s-1-56.9,12.2-55.5s-8,43.9-7.4,63.2c0,0,8-28.1,20.2-25.6
		S74.2,206,71,245.9v18.3c0,0,6.9-27.5,17.5-21.9s-20.2,27-18.6,65.9H64.1z"/>
	<rect x="350.4" y="51.7" class="st3" width="62" height="88.8"/>
	<rect x="354.7" y="57.8" class="st1" width="53.4" height="76.5"/>
	<ellipse class="st0" cx="383.8" cy="83.4" rx="10.7" ry="10.3"/>
	<polygon class="st3" points="373.1,123.4 388.7,105.4 394.5,123.4 	"/>
	<path class="st3" d="M365.5,70.6c-7.5,11.7-2.1,26.3,6.4,35.9c1.3,1.5,3.5-0.7,2.2-2.1c-7.6-8.5-12.7-21.7-6-32.3
		C369.2,70.4,366.6,68.9,365.5,70.6z"/>
	<polygon class="st3" points="397.1,62.7 391.3,68.3 397.1,73.1 402.3,67.9 	"/>
	<polygon class="st0" points="396.3,226 368.8,226 375.7,215.5 392.2,215.5 392.2,218.5 377.4,218.5 374.5,223 396.3,223 	"/>
	<polygon class="st0" points="386.4,216.9 389.5,216.5 390.4,222.5 387.3,222.9 	"/>
	<polygon class="st3" points="394.6,223.9 398.2,217.5 400.9,218.9 397.3,225.4 	"/>
	<path class="st0" d="M414.7,220.2l-16.9,0.5c-1.1,0.1-2.1-0.7-2.3-1.8v-1c0.1-1.1,1.1-1.9,2.3-1.8l16.9,0.5c1.1,0,2,0.8,2.1,1.8
		l0,0C416.8,219.4,415.8,220.2,414.7,220.2z"/>
	<polygon class="st2" points="362.4,235.8 370.7,231.7 370.7,229.3 362.4,225.2 	"/>
	<rect x="361.3" y="225.2" class="st0" width="1.1" height="10.5"/>
	<polygon class="st2" points="406.4,238.8 393.5,232.3 393.5,228.7 406.4,222.2 	"/>
	<rect x="406.4" y="222.2" class="st0" width="1.8" height="16.5"/>
	<path class="st3" d="M397.8,240.2h-23.5c-4.6,0-8.3-3.6-8.3-8v-2c0-4.4,3.7-8,8.3-8h23.5L397.8,240.2z"/>
	<g id="freepik--Desk--inject-2">
		<path class="st6" d="M270.5,246.4h-6.2l-10,118.3c-0.1,1.2,0.8,2.3,2.1,2.5c0.1,0,0.1,0,0.2,0l0,0c1.1,0,2.1-0.9,2.3-2
			L270.5,246.4z"/>
		<path class="st7" d="M270.5,246.4h-6.2l-10,118.3c-0.1,1.2,0.8,2.3,2.1,2.5c0.1,0,0.1,0,0.2,0l0,0c1.1,0,2.1-0.9,2.3-2
			L270.5,246.4z"/>
		<path class="st6" d="M120.5,245.6h-6.3l-10,119.2c-0.1,1.2,0.8,2.3,2.1,2.4c0.1,0,0.1,0,0.2,0l0,0c1.1,0,2.1-0.9,2.3-2
			L120.5,245.6z"/>
		<path class="st7" d="M120.5,245.6h-6.3l-10,119.2c-0.1,1.2,0.8,2.3,2.1,2.4c0.1,0,0.1,0,0.2,0l0,0c1.1,0,2.1-0.9,2.3-2
			L120.5,245.6z"/>
		<path class="st6" d="M148.2,245.6h6.2l0.2,119.5c0,1.3-1,2.3-2.3,2.3l0,0c-1.2,0-2.2-1-2.3-2.2L148.2,245.6z"/>
		<path class="st8" d="M148.2,245.6h6.2l0.2,119.5c0,1.3-1,2.3-2.3,2.3l0,0c-1.2,0-2.2-1-2.3-2.2L148.2,245.6z"/>
		<path class="st6" d="M296.2,245.6h6.3l0.2,119.5c0,1.3-1,2.3-2.3,2.3l0,0c-1.2,0-2.2-1-2.3-2.2L296.2,245.6z"/>
		<path class="st8" d="M302.4,245.6l0.2,119.5c0,1.3-1,2.3-2.3,2.3l0,0c-1.2,0-2.2-1-2.3-2.2l-1.9-119.6H302.4z"/>
		<polygon class="st9" points="112.4,268 302.3,266.6 302.3,245.6 114.3,245.6 		"/>
		<polygon class="st10" points="148.2,245.7 148.6,267.7 112.4,268 114.3,245.6 		"/>
		<path class="st6" d="M309.6,240.5L309.6,240.5c0-2.8-1.1-5.1-2.4-5.1H111.4c-1.3,0-2.4,2.3-2.4,5.1l0,0c0,2.8,1.1,5.1,2.4,5.1
			h195.8C308.6,245.7,309.6,243.4,309.6,240.5z"/>
		<path class="st7" d="M309.6,240.5L309.6,240.5c0-2.8-1.1-5.1-2.4-5.1H111.4c-1.3,0-2.4,2.3-2.4,5.1l0,0c0,2.8,1.1,5.1,2.4,5.1
			h195.8C308.6,245.7,309.6,243.4,309.6,240.5z"/>
		<path class="st10" d="M159.6,240.5L159.6,240.5c0-2.8-1-5.1-2.4-5.1h-45.8c-1.3,0-2.4,2.3-2.4,5.1l0,0c0,2.8,1.1,5.1,2.4,5.1h45.8
			C158.6,245.7,159.6,243.4,159.6,240.5z"/>
	</g>
	<g id="freepik--Device--inject-2">
		<path class="st9" d="M259.3,235.9h-20.6l0.5-2.2c2.2-5.9,13.4-5.9,13.4-5.9c2.8,0.2,5.5,2.8,6.3,6.4L259.3,235.9z"/>
		<path class="st6" d="M202.2,232.6h20.7l2.5-21.6h-18.8L202.2,232.6z"/>
		<path class="st6" d="M198.6,235.4h1v0.3h35v-3h-32.3l4.4-21.6h18.8l1-9.2c-0.1-1.3-1.1-2.2-2.3-2.2h-16c-1.3,0-2.3,1-2.4,2.2
			L198.6,235.4z"/>
		<polygon class="st6" points="202.2,232.6 222.9,232.6 225.1,212.7 225.3,211 206.6,211 		"/>
		<polygon class="st11" points="224.5,218.2 225.3,211 203.7,211 202.2,218.2 		"/>
		<path class="st6" d="M235,233.3h2.5c0.2,0,0.4-0.2,0.5-0.4c0,0,0,0,0,0v-2.4c0-0.2-0.2-0.4-0.4-0.4c0,0,0,0,0,0h-1.8
			c-0.2,0-0.4,0.1-0.5,0.3l-0.7,2.4c-0.1,0.2,0.1,0.5,0.3,0.5C234.9,233.3,235,233.3,235,233.3z"/>
		<path class="st6" d="M231.6,233.3h2.5c0.2,0,0.4-0.2,0.5-0.4v-2.4c0-0.2-0.2-0.4-0.5-0.4h-1.8c-0.2,0-0.4,0.1-0.5,0.3l-0.7,2.4
			c-0.1,0.2,0.1,0.5,0.3,0.5C231.5,233.3,231.6,233.3,231.6,233.3z"/>
		<path class="st6" d="M228.2,233.3h2.4c0.2,0,0.5-0.2,0.5-0.4v-2.4c0-0.2-0.2-0.4-0.5-0.4c0,0,0,0,0,0h-1.8c-0.2,0-0.4,0.1-0.4,0.3
			l-0.7,2.4c-0.1,0.2,0.1,0.5,0.3,0.5C228.1,233.3,228.2,233.3,228.2,233.3z"/>
		<path class="st6" d="M224.8,233.3h2.4c0.2,0,0.5-0.2,0.5-0.4v-2.4c0-0.2-0.2-0.4-0.5-0.4c0,0,0,0,0,0h-1.8c-0.2,0-0.4,0.1-0.4,0.3
			l-0.7,2.4c-0.1,0.2,0.1,0.5,0.3,0.5C224.8,233.3,224.8,233.3,224.8,233.3z"/>
		<path class="st6" d="M221.4,233.3h2.4c0.2,0,0.5-0.2,0.5-0.4v-2.4c0-0.2-0.2-0.4-0.5-0.4c0,0,0,0,0,0h-1.8c-0.2,0-0.4,0.1-0.4,0.3
			l-0.7,2.4c-0.1,0.2,0.1,0.5,0.3,0.5C221.3,233.3,221.4,233.3,221.4,233.3z"/>
		<path class="st6" d="M218.1,233.3h2.4c0.2,0,0.5-0.2,0.5-0.4v-2.4c0-0.2-0.2-0.4-0.5-0.4c0,0,0,0,0,0h-1.8c-0.2,0-0.4,0.1-0.4,0.3
			l-0.7,2.4c-0.1,0.2,0.1,0.5,0.3,0.5C218,233.3,218,233.3,218.1,233.3z"/>
		<path class="st6" d="M214.7,233.3h2.4c0.2,0,0.5-0.2,0.5-0.4v-2.4c0-0.2-0.2-0.4-0.5-0.4c0,0,0,0,0,0h-1.8c-0.2,0-0.4,0.1-0.4,0.3
			l-0.7,2.4c-0.1,0.2,0.1,0.5,0.3,0.5C214.6,233.3,214.6,233.3,214.7,233.3z"/>
		<path class="st6" d="M211.3,233.3h2.4c0.2,0,0.5-0.2,0.5-0.4v-2.4c0-0.2-0.2-0.4-0.5-0.4c0,0,0,0,0,0H212c-0.2,0-0.4,0.1-0.4,0.3
			l-0.7,2.4C210.8,233,211,233.2,211.3,233.3C211.2,233.3,211.3,233.3,211.3,233.3z"/>
		<path class="st6" d="M207.9,233.3h2.4c0.2,0,0.5-0.2,0.5-0.4v-2.4c0-0.2-0.2-0.4-0.5-0.4c0,0,0,0,0,0h-1.8c-0.2,0-0.4,0.1-0.4,0.3
			l-0.7,2.4c-0.1,0.2,0.1,0.5,0.3,0.5C207.8,233.3,207.8,233.3,207.9,233.3z"/>
		<path class="st6" d="M204.5,233.3h2.5c0.2,0,0.5-0.2,0.5-0.4v-2.4c0-0.2-0.2-0.4-0.5-0.4c0,0,0,0,0,0h-1.8c-0.2,0-0.4,0.1-0.5,0.3
			l-0.8,2.4c-0.1,0.2,0.1,0.5,0.3,0.5C204.4,233.3,204.4,233.3,204.5,233.3z"/>
		<path class="st6" d="M201.1,233.3h2.5c0.2,0,0.5-0.2,0.5-0.4v-2.4c0-0.2-0.2-0.4-0.5-0.4c0,0,0,0,0,0h-1.8c-0.2,0-0.4,0.1-0.5,0.3
			l-0.7,2.4c-0.1,0.2,0.1,0.5,0.3,0.5C201,233.3,201.1,233.3,201.1,233.3z"/>
		<path class="st6" d="M197.7,233.3h2.5c0.2,0,0.5-0.2,0.5-0.4v-2.4c0-0.2-0.2-0.4-0.5-0.4c0,0,0,0,0,0h-1.8c-0.2,0-0.4,0.1-0.5,0.3
			l-0.7,2.4c-0.1,0.2,0.1,0.5,0.3,0.5C197.6,233.3,197.7,233.3,197.7,233.3z"/>
		<path class="st6" d="M194.3,233.3h2.5c0.2,0,0.4-0.2,0.5-0.4v-2.4c0-0.2-0.2-0.4-0.5-0.4H195c-0.2,0-0.4,0.1-0.4,0.3l-0.7,2.4
			c-0.1,0.2,0.1,0.5,0.3,0.5C194.2,233.3,194.3,233.3,194.3,233.3z"/>
		<path class="st6" d="M190.9,233.3h2.5c0.2,0,0.4-0.2,0.5-0.4v-2.4c0-0.2-0.2-0.4-0.5-0.4h-1.8c-0.2,0-0.4,0.1-0.4,0.3l-0.7,2.4
			c-0.1,0.2,0.1,0.5,0.3,0.5C190.8,233.3,190.9,233.3,190.9,233.3z"/>
		<path class="st6" d="M187.5,233.3h2.5c0.2,0,0.5-0.2,0.5-0.4v-2.4c0-0.2-0.2-0.4-0.5-0.4c0,0,0,0,0,0h-1.8c-0.2,0-0.4,0.1-0.4,0.3
			l-0.7,2.4c-0.1,0.2,0.1,0.5,0.3,0.5C187.5,233.3,187.5,233.3,187.5,233.3z"/>
		<path class="st6" d="M185.1,233.5c0.1,1,0.9,1.9,2,1.9h50.8c1.1,0,2-0.8,2-1.9c0-0.5-0.2-1-0.6-1.3c-0.4-0.3-0.9-0.5-1.4-0.5
			h-50.8c-0.2,0-0.4,0-0.6,0.1C185.7,231.9,185.1,232.7,185.1,233.5z"/>
		<path class="st8" d="M185.1,233.5c0.1,1,0.9,1.9,2,1.9h50.8c1.1,0,2-0.8,2-1.9c0-0.5-0.2-1-0.6-1.3c-0.4-0.3-0.9-0.5-1.4-0.5
			h-50.8c-0.2,0-0.4,0-0.6,0.1C185.7,231.9,185.1,232.7,185.1,233.5z"/>
		<path class="st6" d="M185.1,233.5c0.1,1,0.9,1.9,2,1.9h17.2c0.8-0.2,1.4-0.9,1.4-1.8c0-0.1,0-0.2,0-0.3c-0.1-0.4-0.3-0.7-0.6-1
			c-0.1-0.1-0.3-0.2-0.4-0.3l-0.2-0.1c-0.3-0.1-0.5-0.1-0.8-0.1h-17.1C185.7,231.9,185.1,232.7,185.1,233.5z"/>
		<path class="st9" d="M170.5,150.4h5.2l5.8,63.3h-5.2c-0.9-0.1-1.7-0.8-1.7-1.8l-5.5-59.7c-0.2-0.8,0.4-1.6,1.2-1.8
			C170.3,150.4,170.4,150.4,170.5,150.4z"/>
		<path class="st10" d="M170.5,150.4h5.2l5.8,63.3h-5.2c-0.9-0.1-1.7-0.8-1.7-1.8l-5.5-59.7c-0.2-0.8,0.4-1.6,1.2-1.8
			C170.3,150.4,170.4,150.4,170.5,150.4z"/>
		<path class="st9" d="M178.5,213.6h77.8c0.8-0.1,1.5-0.8,1.4-1.6c0-0.1,0-0.1,0-0.2l-5.5-59.7c0-0.9-0.8-1.7-1.7-1.8h-77.8
			c-0.8,0.1-1.5,0.8-1.4,1.6c0,0.1,0,0.1,0,0.2l5.5,59.7C176.8,212.8,177.5,213.6,178.5,213.6z"/>
		<polygon class="st9" points="180.8,201 251.5,201 247.5,156.2 176.9,156.2 		"/>
		<path class="st6" d="M181.8,204.5h69.6c1.8,0,3.3-1.4,3.3-3.2c0-0.1,0-0.3,0-0.4l-3.9-44.5c-0.2-2-1.9-3.5-3.9-3.6h-69.6
			c-1.8,0-3.3,1.4-3.3,3.2c0,0.1,0,0.3,0,0.4l3.9,44.5C178.1,202.9,179.8,204.4,181.8,204.5z"/>
		<polygon class="st9" points="180.8,201 251.5,201 247.5,156.2 176.9,156.2 		"/>
		<polygon class="st12" points="180.8,201 251.5,201 247.5,156.2 176.9,156.2 		"/>
		<path class="st9" d="M204,158.6l3.4,39h-25.9l-3.4-39H204 M204.9,157.6H177l0.1,1.1l3.4,39l0.1,0.9h27.9l-0.1-1.1l-3.4-39
			L204.9,157.6L204.9,157.6z"/>
		<polygon class="st13" points="207.4,197.6 181.5,197.6 178.1,158.6 203.9,158.6 		"/>
		<polygon class="st9" points="189.1,170.6 181.2,170.6 180.4,160.7 188.2,160.7 		"/>
		<g class="st14">
			<path d="M181.3,160.7h-0.9l0.7,7.7h0.3v-0.6h0.7v0.6h0.3l-0.7-7.7H181.3z M181,164.8l-0.1-1.1h0.7l0.1,1.1H181z M181.7,165
				l0.1,1.1h-0.7L181,165L181.7,165z M180.8,163.4l-0.1-1.1h0.7l0.1,1.1H180.8z M180.7,162l-0.1-1.1h0.7l0.1,1.1H180.7z
				 M181.2,167.5l-0.1-1.1h0.7l0.1,1.1H181.2z"/>
		</g>
		<g class="st14">
			<path d="M188,160.7h-1l0.7,7.7h0.3l-0.1-0.6h0.7v0.6h0.3l-0.7-7.7H188z M187.7,164.8l-0.1-1.1h0.7l0.1,1.1H187.7z M188.4,165
				l0.1,1.1h-0.7l-0.1-1.1H188.4z M187.6,163.4l-0.1-1.1h0.7l0.1,1.1H187.6z M187.4,162l-0.1-1.1h0.7l0.1,1.1H187.4z M187.9,167.5
				l-0.1-1.1h0.7l0.1,1.1H187.9z"/>
		</g>
		<polygon class="st8" points="187.7,168.3 182.2,168.3 181.5,160.7 187,160.7 		"/>
		<path class="st8" d="M186.9,164.6c0.2,1.1-0.6,2.1-1.7,2.3c-0.1,0-0.2,0-0.4,0c-1.3,0-2.3-1-2.5-2.3c-0.1-1.1,0.7-2.1,1.8-2.3
			c0.1,0,0.2,0,0.3,0C185.7,162.3,186.8,163.3,186.9,164.6z"/>
		<polygon class="st13" points="183.9,163.4 185.9,164.7 184.1,166 		"/>
		<polygon class="st9" points="190.2,183 182.3,183 181.4,173.1 189.3,173.1 		"/>
		<g class="st14">
			<path d="M182.4,173.1h-0.9l0.7,7.7h0.3l-0.1-0.6h0.7v0.6h0.3l-0.7-7.7H182.4z M182,177.2l-0.1-1.1h0.7l0.1,1.1H182z M182.7,177.4
				l0.1,1.1h-0.7l-0.1-1.1H182.7z M181.9,175.8l-0.1-1.1h0.7l0.1,1.1H181.9z M181.8,174.4l-0.1-1.1h0.7l0.1,1.1H181.8z M182.3,179.9
				l-0.1-1.1h0.7l0.1,1.1H182.3z"/>
		</g>
		<g class="st14">
			<path d="M189.1,173.1h-0.9l0.7,7.7h0.2v-0.6h0.7l0.1,0.6h0.3l-0.7-7.7H189.1z M188.7,177.2l-0.1-1.1h0.7l0.1,1.1H188.7z
				 M189.4,177.4l0.1,1.1h-0.7l-0.1-1.1H189.4z M188.6,175.8l-0.1-1.1h0.7l0.1,1.1H188.6z M188.5,174.4l-0.1-1.1h0.7l0.1,1.1H188.5z
				 M189,179.9l-0.1-1.1h0.7l0.1,1.1H189z"/>
		</g>
		<polygon class="st8" points="188.8,180.7 183.3,180.7 182.6,173.1 188.1,173.1 		"/>
		<path class="st8" d="M188,177c0.1,1.1-0.7,2.1-1.8,2.3c-0.1,0-0.2,0-0.3,0c-1.3,0-2.3-1-2.5-2.3c-0.2-1.1,0.6-2.1,1.7-2.3
			c0.1,0,0.2,0,0.4,0C186.8,174.7,187.9,175.7,188,177z"/>
		<polygon class="st13" points="185,175.8 187,177.1 185.2,178.4 		"/>
		<polygon class="st9" points="199.4,170.6 191.5,170.6 190.7,160.7 198.6,160.7 		"/>
		<g class="st14">
			<path d="M191.6,160.7h-0.9l0.7,7.7h0.3v-0.6h0.7l0.1,0.6h0.3l-0.7-7.7H191.6z M191.3,164.8l-0.1-1.1h0.7l0.1,1.1H191.3z M192,165
				l0.1,1.1h-0.7l-0.1-1.1H192z M191.2,163.4l-0.1-1.1h0.7l0.1,1.1H191.2z M191,162l-0.1-1.1h0.7l0.1,1.1H191z M191.5,167.5
				l-0.1-1.1h0.7l0.1,1.1H191.5z"/>
		</g>
		<g class="st14">
			<path d="M198.3,160.7h-0.9l0.7,7.7h0.3v-0.6h0.7l0.1,0.6h0.3l-0.7-7.7H198.3z M198,164.8l-0.1-1.1h0.7l0.1,1.1H198z M198.7,165
				l0.1,1.1h-0.7L198,165H198.7z M197.8,163.4l-0.1-1.1h0.7l0.1,1.1H197.8z M197.7,162l-0.1-1.1h0.7l0.1,1.1H197.7z M198.2,167.5
				l-0.1-1.1h0.7l0.1,1.1H198.2z"/>
		</g>
		<polygon class="st8" points="198,168.3 192.5,168.3 191.9,160.7 197.4,160.7 		"/>
		<path class="st8" d="M197.2,164.6c0.2,1.1-0.6,2.1-1.7,2.3c-0.1,0-0.2,0-0.4,0c-1.3,0-2.3-1-2.5-2.3c-0.1-1.1,0.7-2.1,1.8-2.3
			c0.1,0,0.2,0,0.3,0C196,162.3,197.1,163.3,197.2,164.6z"/>
		<polygon class="st13" points="194.2,163.4 196.2,164.7 194.5,166 		"/>
		<polygon class="st9" points="191.3,195.4 183.4,195.4 182.5,185.5 190.4,185.5 		"/>
		<g class="st14">
			<path d="M183.4,185.5h-0.9l0.7,7.7h0.3v-0.6h0.7l0.1,0.6h0.3l-0.7-7.7H183.4z M183.1,189.6l-0.1-1.1h0.7l0.1,1.1H183.1z
				 M183.8,189.8l0.1,1.1h-0.7l-0.1-1.1H183.8z M183,188.2l-0.1-1.1h0.7l0.1,1.1H183z M182.9,186.8l-0.1-1.1h0.7l0.1,1.1
				L182.9,186.8z M183.4,192.3l-0.1-1.1h0.7l0.1,1.1H183.4z"/>
		</g>
		<g class="st14">
			<path d="M190.1,185.5h-0.9l0.7,7.7h0.3v-0.6h0.7l0.1,0.6h0.3l-0.7-7.7H190.1z M189.8,189.6l-0.1-1.1h0.7l0.1,1.1H189.8z
				 M190.5,189.8l0.1,1.1h-0.7l-0.1-1.1H190.5z M189.7,188.2l-0.1-1.1h0.7l0.1,1.1H189.7z M189.6,186.8l-0.1-1.1h0.7l0.1,1.1H189.6z
				 M190.1,192.3l-0.1-1.1h0.7l0.1,1.1H190.1z"/>
		</g>
		<polygon class="st8" points="189.9,193.1 184.4,193.1 183.7,185.5 189.2,185.5 		"/>
		<path class="st8" d="M189.1,189.4c0.2,1.1-0.6,2.1-1.7,2.3c-0.1,0-0.3,0-0.4,0c-1.3,0-2.3-1-2.5-2.3c-0.1-1.1,0.7-2.1,1.8-2.3
			c0.1,0,0.2,0,0.3,0C187.9,187.2,188.9,188.2,189.1,189.4z"/>
		<polygon class="st13" points="186.1,188.2 188.1,189.5 186.3,190.8 		"/>
		<polygon class="st7" points="201.1,152.8 187.4,204.4 192,204.4 205.6,152.8 		"/>
		<polygon class="st7" points="208.3,152.8 194.5,204.4 203.7,204.4 217.4,152.8 		"/>
		<polygon class="st6" points="249.7,191.3 204.9,191.3 202.5,164.8 247.4,164.8 		"/>
		<path class="st13" d="M231.4,175.1c0.3,2.7-1.6,5.2-4.4,5.5c-0.2,0-0.5,0-0.7,0c-3.1-0.1-5.7-2.5-6.1-5.6
			c-0.3-2.7,1.6-5.2,4.4-5.6c0.2,0,0.5,0,0.7,0C228.5,169.6,231.1,172,231.4,175.1z"/>
		<polygon class="st6" points="228.9,175.3 224,172.7 224.5,178 		"/>
		<polygon class="st13" points="248.7,186.1 205,186.1 204.9,185.3 248.6,185.3 		"/>
		<polygon class="st9" points="229.5,186.1 205,186.1 204.9,185.3 229.4,185.3 		"/>
		<polygon class="st13" points="205.8,189.3 205.3,189.3 205.2,187.6 205.6,187.6 		"/>
		<polygon class="st13" points="206.5,189.3 206.1,189.3 205.9,187.6 206.3,187.6 		"/>
		<polygon class="st13" points="210.3,189.3 208.6,189.3 208.5,187.6 210.1,187.6 		"/>
		<polygon class="st13" points="212.5,188.5 213.8,187.6 214,189.3 		"/>
		<polygon class="st13" points="212.5,189.3 212.1,189.3 212,187.6 212.4,187.6 		"/>
		<polygon class="st13" points="217.1,188.5 215.6,187.6 215.8,189.3 		"/>
		<polygon class="st13" points="217.2,189.3 217.6,189.3 217.5,187.6 217,187.6 		"/>
		<polygon class="st13" points="220.2,187.6 219.4,188.6 221.1,188.6 		"/>
		<polygon class="st13" points="221.2,189.3 221.2,188.9 219.4,188.9 219.5,189.3 		"/>
		<path class="st13" d="M249,189.4h-3.2l-0.2-2h3.2L249,189.4z M246,189.2h2.6l-0.1-1.4h-2.6L246,189.2z"/>
		<polygon class="st13" points="243.4,189.4 242.8,189.4 242.7,188.9 243,188.8 243,189.2 243.4,189.2 		"/>
		<polygon class="st13" points="244.9,189.4 244.2,189.4 244.2,189.2 244.6,189.2 244.5,188.9 244.8,188.8 		"/>
		<polygon class="st13" points="244.5,188.1 244.5,187.8 244.1,187.8 244.1,187.5 244.7,187.5 244.8,188.1 		"/>
		<polygon class="st13" points="242.7,188.1 242.6,187.5 243.3,187.5 243.3,187.8 242.9,187.8 243,188.1 		"/>
		<polygon class="st15" points="210.9,164.8 216,164.8 210,191.3 204.9,191.3 		"/>
		<polygon class="st15" points="236.1,191.3 242.2,164.8 247.3,164.8 241.3,191.3 		"/>
		<polyline class="st15" points="247.7,168 243.8,185.3 243.5,186.1 243.2,187.6 242.9,189 242.4,191.3 243.7,191.3 244.5,187.6 
			244.9,186.1 245,185.3 248,172.1 		"/>
		<polygon class="st9" points="247.4,164.8 202.5,164.8 202.3,162.4 247.2,162.4 		"/>
		<path class="st13" d="M205.7,163.6c0,0.4-0.2,0.7-0.6,0.7c0,0-0.1,0-0.1,0c-0.4,0-0.8-0.3-0.8-0.7c0-0.4,0.2-0.7,0.6-0.7
			c0,0,0,0,0.1,0C205.3,162.9,205.7,163.2,205.7,163.6z"/>
		<path class="st13" d="M207.9,163.6c0,0.4-0.2,0.7-0.6,0.7c0,0-0.1,0-0.1,0c-0.4,0-0.8-0.3-0.8-0.7c0-0.4,0.2-0.7,0.6-0.7
			c0,0,0.1,0,0.1,0C207.5,162.9,207.9,163.2,207.9,163.6z"/>
		<path class="st13" d="M210.1,163.6c0,0.4-0.2,0.7-0.6,0.7c0,0-0.1,0-0.1,0c-0.4,0-0.8-0.3-0.8-0.7c0-0.4,0.2-0.7,0.6-0.7
			c0,0,0.1,0,0.1,0C209.8,162.9,210.1,163.2,210.1,163.6z"/>
		<polygon class="st9" points="163.1,235.4 137.5,235.4 130.8,158.8 156.4,158.8 		"/>
		<polygon class="st10" points="163.1,235.4 137.5,235.4 130.8,158.8 156.4,158.8 		"/>
		<polygon class="st9" points="165.6,235.4 140,235.4 133.3,158.8 158.9,158.8 		"/>
		<path class="st16" d="M146.9,164.7c-4.9-0.1-8.9,3.8-9,8.6c0,0.4,0,0.8,0.1,1.1c0.6,5.5,5.1,9.7,10.6,9.8c4.9,0.1,8.9-3.8,9-8.6
			c0-0.4,0-0.7-0.1-1.1C157,169,152.4,164.8,146.9,164.7z"/>
		<path class="st9" d="M145.1,175.1c0.2,1.6,1.4,2.7,3,2.8c1.4,0,2.5-1.1,2.5-2.5c0-0.1,0-0.2,0-0.3c-0.2-1.5-1.4-2.7-3-2.8
			c-1.4,0-2.5,1.1-2.5,2.5C145.1,174.9,145.1,175,145.1,175.1z"/>
		<path class="st16" d="M144.8,193.5c0.3,2.7,2.5,4.7,5.2,4.8c2.4,0,4.3-1.8,4.4-4.2c0-0.2,0-0.4,0-0.5c-0.3-2.7-2.5-4.7-5.2-4.8
			l0,0c-2.4,0-4.3,1.9-4.4,4.2C144.7,193.2,144.8,193.3,144.8,193.5z"/>
		<path class="st16" d="M146.5,205.7c0.2,2.3,2.2,4.1,4.5,4.1c2,0,3.7-1.6,3.8-3.6c0-0.2,0-0.3,0-0.5c-0.2-2.3-2.2-4.1-4.5-4.1l0,0
			c-2,0-3.7,1.6-3.8,3.6C146.4,205.4,146.4,205.6,146.5,205.7z"/>
		<path class="st16" d="M148.1,216.9c0.2,1.9,1.8,3.4,3.8,3.5c1.7,0,3.1-1.3,3.2-3.1c0-0.1,0-0.3,0-0.4c-0.2-1.9-1.8-3.4-3.8-3.5
			l0,0c-1.7,0-3.2,1.3-3.2,3.1C148,216.7,148,216.8,148.1,216.9z"/>
		<path class="st16" d="M149.5,226.2c0.2,1.6,1.5,2.8,3.1,2.8c1.4,0,2.6-1.1,2.6-2.5c0-0.1,0-0.2,0-0.3c-0.2-1.6-1.5-2.8-3.1-2.8
			l0,0c-1.4,0-2.6,1.1-2.6,2.5C149.5,226,149.5,226.1,149.5,226.2z"/>
		<polygon class="st9" points="293.7,235.3 268,235.3 261.3,158.7 287,158.7 		"/>
		<polygon class="st10" points="293.7,235.3 268,235.3 261.3,158.7 287,158.7 		"/>
		<polygon class="st9" points="296.2,235.3 270.5,235.3 263.8,158.7 289.5,158.7 		"/>
		<path class="st16" d="M277.5,164.6c-4.9-0.1-8.9,3.8-9,8.6c0,0.4,0,0.8,0.1,1.1c0.6,5.5,5.1,9.7,10.6,9.8c4.9,0.1,8.9-3.8,9-8.6
			c0-0.4,0-0.7-0.1-1.1C287.5,168.9,283,164.7,277.5,164.6z"/>
		<path class="st9" d="M275.7,175.1c0.2,1.5,1.4,2.7,3,2.8c1.4,0,2.5-1.1,2.5-2.5c0-0.1,0-0.2,0-0.3c-0.2-1.5-1.4-2.7-3-2.8
			c-1.4,0-2.5,1.1-2.5,2.5C275.7,174.8,275.7,174.9,275.7,175.1z"/>
		<path class="st16" d="M275.3,193.4c0.3,2.7,2.5,4.7,5.2,4.8c2.4,0,4.3-1.8,4.4-4.2c0-0.2,0-0.4,0-0.5c-0.3-2.7-2.5-4.7-5.2-4.8
			l0,0c-2.4,0-4.3,1.8-4.4,4.2C275.3,193.1,275.3,193.2,275.3,193.4z"/>
		<path class="st16" d="M277,205.6c0.2,2.3,2.2,4.1,4.5,4.1c2,0,3.7-1.6,3.8-3.6c0-0.2,0-0.3,0-0.5c-0.2-2.3-2.2-4.1-4.5-4.1l0,0
			c-2,0-3.7,1.6-3.8,3.6C277,205.3,277,205.5,277,205.6z"/>
		<path class="st16" d="M278.6,216.8c0.2,1.9,1.8,3.4,3.8,3.5c1.7,0,3.1-1.3,3.2-3.1c0-0.1,0-0.3,0-0.4c-0.2-1.9-1.8-3.4-3.8-3.5
			l0,0c-1.7,0-3.2,1.3-3.2,3.1C278.6,216.6,278.6,216.7,278.6,216.8z"/>
		<path class="st16" d="M280,226.1c0.2,1.6,1.5,2.8,3.1,2.8c1.4,0,2.6-1.1,2.6-2.5c0-0.1,0-0.2,0-0.3c-0.2-1.6-1.5-2.8-3.1-2.8l0,0
			c-1.4,0-2.6,1.1-2.6,2.5C280,225.9,280,226,280,226.1z"/>
	</g>
	<g id="freepik--video-files--inject-2">
		<path class="st13" d="M89.3,136l-4.7-77.4c0-0.1,0-0.2,0-0.3c0-2.1,1.7-3.7,3.8-3.7l206.2-0.5c2.2,0,4.1,1.8,4.2,4l4.7,77.4
			c0,0.1,0,0.2,0,0.3c0,2-1.7,3.7-3.7,3.7c0,0,0,0,0,0L93.5,140C91.3,140,89.4,138.2,89.3,136z"/>
		<polygon class="st13" points="165.8,55 109.2,55 109.2,54.6 165.8,54.5 		"/>
		<path class="st13" d="M303.5,135.9c0,2-1.7,3.7-3.8,3.7L93.5,140c-2.2,0-4.1-1.8-4.2-4l-4.7-77.4c0-0.1,0-0.2,0-0.3
			c0-2,1.7-3.7,3.8-3.7h15.9l-0.3-3.7c-0.3-3,1.8-5.7,4.8-6c0.2,0,0.5,0,0.7,0h44.4c3.4,0.1,6.3,2.7,6.6,6.1l0.3,3.6l133.8-0.3
			c2.2,0,4.1,1.8,4.2,4l4.7,77.4C303.5,135.7,303.5,135.7,303.5,135.9z"/>
		<path class="st9" d="M153.9,44.8c3.4,0.1,6.3,2.7,6.6,6.1l0.3,3.6l133.8-0.3c2.2,0,4.1,1.8,4.2,4l4.7,77.4c0,0.1,0,0.2,0,0.3
			c0,2-1.7,3.7-3.7,3.7l0,0L93.5,140c-2.2,0-4.1-1.8-4.2-4l-4.7-77.4c0-0.1,0-0.2,0-0.3c0-2,1.7-3.7,3.7-3.7l0,0h15.8l-0.3-3.7
			c-0.3-3,1.8-5.7,4.8-6c0.2,0,0.5,0,0.7,0L153.9,44.8 M153.9,41.8h-44.5c-4.7-0.1-8.6,3.7-8.6,8.4c0,0.3,0,0.7,0,1v0.4H88.3
			c-3.7,0-6.8,3-6.8,6.7v0.5l4.7,77.4c0.3,3.8,3.4,6.8,7.2,6.9l206.3-0.5c3.7,0,6.8-3,6.8-6.7c0-0.2,0-0.4,0-0.6L301.8,58
			c-0.3-3.8-3.4-6.8-7.2-6.9h-0.1l-131,0.3l-0.1-0.8C163,45.6,158.9,41.8,153.9,41.8L153.9,41.8z"/>
		<rect x="95.7" y="37.5" class="st9" width="45.8" height="57.6"/>
		<g class="st14">
			<path d="M101.2,37.5h-5.4v44.7h1.5v-3.3h4v3.3h1.5V37.5H101.2z M97.2,61.5V55h4v6.5H97.2z M101.2,63v6.5h-4V63H101.2z M97.2,53.5
				V47h4v6.5H97.2z M97.2,45.5V39h4v6.5H97.2z M97.2,77.5V71h4v6.5H97.2z"/>
		</g>
		<g class="st14">
			<path d="M140,37.5h-5.4v44.7h1.5v-3.3h3.9v3.3h1.5V37.5H140z M136.1,61.5V55h3.9v6.5H136.1z M140,63v6.5h-3.9V63H140z
				 M136.1,53.5V47h3.9v6.5H136.1z M136.1,45.5V39h3.9v6.5H136.1z M136.1,77.5V71h3.9v6.5H136.1z"/>
		</g>
		<polygon class="st8" points="134.6,82.1 102.6,82.2 102.6,37.5 134.6,37.5 		"/>
		<path class="st8" d="M131.9,60.4c0,7.3-5.9,13.2-13.2,13.2s-13.2-5.9-13.2-13.2s5.9-13.2,13.2-13.2c0,0,0,0,0,0
			C125.9,47.2,131.9,53.1,131.9,60.4L131.9,60.4z"/>
		<polygon class="st13" points="115.1,53.5 126.1,61.1 115.1,68.8 		"/>
		<polygon class="st9" points="126.1,61.1 125.2,61.7 115.1,54.7 115.1,53.5 		"/>
		<path class="st13" d="M113.2,92.6V88l-2.2,3.8h-0.8l-2.2-3.7v4.5h-1.6V85h1.4l2.9,4.7l2.8-4.7h1.4v7.6H113.2z"/>
		<path class="st13" d="M119.5,89.6l-1,1.1v1.9h-1.8V85h1.8v3.6l3.4-3.6h2l-3.2,3.4l3.4,4.2h-2.1L119.5,89.6z"/>
		<path class="st13" d="M131.6,85l-3.3,7.6h-1.7l-3.3-7.6h1.9l2.3,5.4l2.4-5.4H131.6z"/>
		<rect x="145.6" y="50.3" class="st9" width="45.8" height="57.6"/>
		<g class="st14">
			<path d="M151.1,50.3h-5.4V95h1.5v-3.3h4V95h1.5V50.3H151.1z M147.1,74.3v-6.5h4v6.5H147.1z M151.1,75.8v6.5h-4v-6.5H151.1z
				 M147.1,66.3v-6.5h4v6.5H147.1z M147.1,58.3v-6.5h4v6.5H147.1z M147.1,90.3v-6.6h4v6.5L147.1,90.3z"/>
		</g>
		<g class="st14">
			<path d="M190,50.3h-5.4V95h1.4v-3.3h4V95h1.5V50.3H190z M186.1,74.3v-6.5h3.9v6.5H186.1z M190,75.8v6.5h-4v-6.5H190z M186,66.3
				v-6.5h4v6.5H186z M186,58.3v-6.5h4v6.5H186z M186,90.2v-6.5h4v6.5L186,90.2z"/>
		</g>
		<polygon class="st8" points="184.5,94.9 152.6,95 152.6,50.3 184.5,50.3 		"/>
		<path class="st8" d="M181.8,73.3c0,7.3-5.9,13.2-13.2,13.2c-7.3,0-13.2-5.9-13.2-13.2S161.2,60,168.6,60c0,0,0,0,0,0
			C175.9,60,181.8,65.9,181.8,73.3C181.8,73.2,181.8,73.3,181.8,73.3z"/>
		<polygon class="st13" points="165,66.3 176,74 165,81.6 		"/>
		<polygon class="st9" points="176,74 175.1,74.6 165,67.5 165,66.3 		"/>
		<path class="st13" d="M163.9,103.8h-3.5l-0.7,1.6h-1.8l3.4-7.6h1.7l3.4,7.6h-1.9L163.9,103.8z M163.4,102.5l-1.2-2.9l-1.2,2.9
			L163.4,102.5z"/>
		<path class="st13" d="M174.2,97.8l-3.3,7.6h-1.7l-3.3-7.6h1.9l2.3,5.4l2.4-5.4H174.2z"/>
		<path class="st13" d="M174.8,97.8h1.8v7.6h-1.8V97.8z"/>
		<rect x="195.4" y="28.6" class="st9" width="45.8" height="57.6"/>
		<g class="st14">
			<path d="M200.8,28.6h-5.4v44.7h1.5v-3.3h3.9v3.3h1.5V28.6H200.8z M196.9,52.6v-6.5h3.9v6.5H196.9z M200.8,54.1v6.5h-3.9v-6.5
				H200.8z M196.9,44.7v-6.5h3.9v6.5H196.9z M196.9,36.7v-6.5h3.9v6.5L196.9,36.7z M196.9,68.6v-6.5h3.9v6.5H196.9z"/>
		</g>
		<g class="st14">
			<path d="M239.7,28.6h-5.4v44.7h1.5v-3.3h3.9v3.3h1.5V28.6H239.7z M235.7,52.6v-6.5h3.9v6.5H235.7z M239.7,54.1v6.5h-3.9v-6.5
				H239.7z M235.7,44.7v-6.5h3.9v6.5H235.7z M235.7,36.7v-6.5h3.9v6.5L235.7,36.7z M235.7,68.6v-6.5h3.9v6.5H235.7z"/>
		</g>
		<polygon class="st8" points="234.3,73.3 202.3,73.3 202.3,28.6 234.3,28.6 		"/>
		<path class="st8" d="M231.5,51.6c0,7.3-5.9,13.2-13.2,13.2S205,58.9,205,51.6c0-7.3,5.9-13.2,13.2-13.2S231.5,44.3,231.5,51.6
			L231.5,51.6z"/>
		<polygon class="st13" points="214.7,44.7 225.7,52.3 214.7,59.9 		"/>
		<polygon class="st9" points="225.7,52.3 224.9,52.9 214.7,45.8 214.7,44.7 		"/>
		<path class="st13" d="M212.9,83.7v-4.6l-2.2,3.8h-0.8l-2.2-3.7v4.5H206v-7.6h1.5l2.9,4.7l2.8-4.7h1.4v7.6L212.9,83.7z"/>
		<path class="st13" d="M223,78.9c0,1.7-1.3,2.8-3.3,2.8h-1.6v2.1h-1.8v-7.6h3.3C221.7,76.1,223,77.2,223,78.9z M221.2,78.9
			c0-0.8-0.5-1.3-1.6-1.3h-1.5v2.7h1.4C220.6,80.2,221.2,79.7,221.2,78.9L221.2,78.9z"/>
		<path class="st13" d="M230.5,82.1h-1.2v1.6h-1.7v-1.6h-4.1v-1.2l3.6-4.8h1.9l-3.3,4.6h2v-1.4h1.7v1.4h1.2L230.5,82.1z"/>
		<rect x="245" y="38.5" class="st9" width="45.8" height="57.6"/>
		<g class="st14">
			<path d="M250.4,38.5H245v44.7h1.5V80h4v3.2h1.5V38.5H250.4z M246.4,62.5V56h4v6.5H246.4z M250.4,64v6.5h-4V64H250.4z M246.4,54.5
				V48h4v6.5H246.4z M246.4,46.5V40h4v6.5L246.4,46.5z M246.4,78.5V72h4v6.5H246.4z"/>
		</g>
		<g class="st14">
			<path d="M289.3,38.5h-5.4v44.7h1.5V80h3.9v3.2h1.5V38.5H289.3z M285.3,62.5V56h3.9v6.5H285.3z M289.3,64v6.5h-3.9V64H289.3z
				 M285.3,54.5V48h3.9v6.5H285.3z M285.3,46.5V40h3.9v6.5L285.3,46.5z M285.3,78.5V72h3.9v6.5H285.3z"/>
		</g>
		<polygon class="st8" points="283.9,83.2 251.9,83.2 251.9,38.5 283.9,38.5 		"/>
		<circle class="st8" cx="267.9" cy="61.5" r="13.2"/>
		<polygon class="st13" points="264.3,54.5 275.3,62.2 264.3,69.8 		"/>
		<polygon class="st9" points="275.3,62.2 274.5,62.8 264.3,55.7 264.3,54.6 		"/>
		<path class="st13" d="M262.5,93.6v-4.6l-2.2,3.8h-0.8l-2.2-3.7v4.5h-1.7V86h1.4l2.9,4.7l2.8-4.7h1.5v7.6H262.5z"/>
		<path class="st13" d="M265.5,89.8c-0.1-2.3,1.6-4.3,3.9-4.4c2.3-0.1,4.3,1.6,4.4,3.9c0.1,2.3-1.6,4.3-3.9,4.4c-0.1,0-0.2,0-0.2,0
			c-2.2,0.1-4-1.5-4.2-3.7C265.5,90,265.5,89.9,265.5,89.8z M272,89.8c0-1.3-1.1-2.4-2.4-2.3s-2.4,1.1-2.3,2.4
			c0,1.3,1.1,2.3,2.4,2.3c1.3,0,2.3-1,2.4-2.3C272,89.9,272,89.9,272,89.8L272,89.8z"/>
		<path class="st13" d="M282.2,86l-3.3,7.6h-1.7l-3.3-7.6h1.9l2.3,5.4l2.4-5.4H282.2z"/>
		<path class="st9" d="M207.4,134h-14.9c-2.9-0.1-5.4-2.3-5.7-5.2l-0.1-1.3c-0.3-2.6,1.6-4.9,4.2-5.2c0.2,0,0.4,0,0.6,0h14.9
			L207.4,134z"/>
		<polygon class="st9" points="216.4,133.1 207.9,128.8 207.7,126.4 215.5,122.2 		"/>
		<polygon class="st9" points="217.6,133.1 216.4,133.1 215.5,122.2 216.6,122.2 		"/>
		<path class="st9" d="M196.4,117.1c0.2,2-1.3,3.9-3.3,4.1c-0.2,0-0.3,0-0.5,0c-2.3,0-4.2-1.8-4.5-4.1c-0.2-2,1.2-3.9,3.3-4.1
			c0.2,0,0.3,0,0.5,0C194.2,113,196.1,114.8,196.4,117.1z"/>
		<path class="st9" d="M204.6,117.1c0.2,2-1.3,3.9-3.3,4.1c-0.1,0-0.3,0-0.5,0c-2.3,0-4.2-1.8-4.5-4.1c-0.2-2,1.2-3.9,3.3-4.1
			c0.2,0,0.3,0,0.5,0C202.4,113,204.4,114.8,204.6,117.1z"/>
	</g>
	<g id="freepik--Character--inject-2">
		<g id="freepik--character--inject-2">
			<path class="st17" d="M275.7,159.3c-0.5,1.9-1.3,3.8-2.4,5.5c0.9,0.5,1.9,0.5,2.9,0.2L275.7,159.3z"/>
			<path class="st18" d="M297.9,165.1l-4.8,5l-6.5,6.8c0.5,0.8,0.9,1.7,1.1,2.6c0.6,2,1.1,3.5-3.3,5.5c-1,0.4-1.6,1.3-1.6,2.3
				c0,1.3,1,2.6,5.3,2.7c4.2,0,8.3-1.4,11.7-3.9c1.7-1.2,1.5-2.3,0.5-4C297.2,177.3,297.3,170.5,297.9,165.1z"/>
			<path class="st6" d="M274.2,159c-0.1,0.7,0.2,1.2,0.5,1.3s0.7-0.5,0.7-1.2s-0.2-1.2-0.5-1.3S274.3,158.3,274.2,159z"/>
			<path class="st19" d="M274.8,155.2c1.5-0.2,3,0.4,4,1.6"/>
			<path class="st18" d="M275.7,168c1,3.6,3.6,6.6,7.1,8c1.2,0.5,2.4,0.8,3.7,0.8c3.1,0.2,6.1-1.1,8.2-3.3c4.1-4.4,3.9-9.3,4.1-17.8
				c0.3-6.5-4.8-11.9-11.2-12.2c-1.7-0.1-3.4,0.2-5,0.9C274.4,148,273.6,160.5,275.7,168z"/>
			<path class="st20" d="M282.8,176.1c1.2,0.5,2.4,0.8,3.7,0.8l0.1-0.1l-0.8-1.6C285.8,175.3,285.3,176.6,282.8,176.1z"/>
			<path class="st6" d="M302.2,161.2c-0.9,3-2.1,6.1-4.4,8.3c-0.9,0.8-8.2,1.6-8.2,1.6c-0.4-2.5-4.9-10.5-6.9-13
				c-0.3,1.2-0.7,6.6-1.2,7.8c-0.8,0-2.1-1.3-2.1-1.3c1.3-3.5,1.7-7.2,1-10.9l-0.3-1.5c0,0.3-4.9,2.6-7.2-1.8
				c-8.8-16.5,13.8-13.6,20.1-7.1c2.1-0.9,4.6-0.6,6.4,0.8c1.8,1.4,3,3.4,3.5,5.7C303.6,153.6,303.4,157.5,302.2,161.2z"/>
		</g>
		<path class="st6" d="M295.5,139.6c-1.2,0-2.3,0.7-2.7,1.8c-0.3,0.6-0.5,2.2,0.2,2.6C293.7,142.4,294.5,140.9,295.5,139.6z"/>
		<path class="st18" d="M288.3,160.3c-0.4,1.9-1.5,3.5-3,4.6c-2,1.4-4-0.6-3.9-3c0-2.1,1.4-5.1,3.7-5.6S288.7,158,288.3,160.3z"/>
		<polygon class="st18" points="248.6,355.1 240.5,352.7 243,333.4 253,337 		"/>
		<polygon class="st20" points="254.1,331.6 243.5,327.6 241.9,341.5 251.3,344.2 		"/>
		<path class="st6" d="M239.8,351.3l9.3,2.5c0.4,0.1,0.6,0.5,0.5,0.8l-1.4,8.9c-0.1,0.9-0.9,1.5-1.8,1.4c0,0-0.1,0-0.1,0
			c-3.2-0.9-4.7-1.6-8.8-2.7c-2.5-0.7-8.3-2.3-11.8-3s-2.8-4.8-1.3-4.9c7-0.4,11-1.3,13.8-2.8C238.7,351.2,239.3,351.2,239.8,351.3z
			"/>
		<path class="st9" d="M235.4,352.6c0.7,0.2,1.5,0.2,2.2,0.2c0.1,0,0.1,0,0.2-0.1c0-0.1,0-0.1,0-0.2c-0.2-0.3-2.2-2.4-3.3-2.3
			c-0.3,0-0.5,0.2-0.6,0.4c-0.2,0.3-0.2,0.8,0,1.1C234.3,352.3,234.9,352.5,235.4,352.6z M237.3,352.4c-1.6-0.1-2.6-0.4-2.9-0.9
			c-0.1-0.2-0.1-0.5,0-0.7c0-0.1,0.1-0.2,0.3-0.2C235.2,350.6,236.4,351.6,237.3,352.4L237.3,352.4z"/>
		<path class="st9" d="M237.7,352.8L237.7,352.8c0.2,0,0.2-0.1,0.2-0.1c0-0.1,0.8-2.4,0.1-3.5c-0.2-0.3-0.4-0.4-0.8-0.5
			c-0.3-0.1-0.7,0.1-0.8,0.4C236.1,350.1,236.9,352.1,237.7,352.8C237.6,352.8,237.6,352.8,237.7,352.8z M237.4,349.2
			c0.2,0,0.3,0.1,0.4,0.3c0.3,0.9,0.2,1.9-0.1,2.8c-0.6-0.8-0.9-1.8-0.8-2.9c0-0.1,0.1-0.2,0.4-0.2L237.4,349.2z"/>
		<path class="st9" d="M290,250.5c0,0-45.7-0.1-47.2,25.1c-1.5,17.7-2.4,25-1.5,63.7l12.2,0.7c0,0,12.4-41.8,10.7-58.4
			c13.6,0,44.9,1.2,49.4-11.1c2.3-6.2,3.4-12.9,3.2-19.5L290,250.5z"/>
		<g class="st21">
			<path d="M290,250.5c0,0-45.7-0.1-47.2,25.1c-1.5,17.7-2.4,25-1.5,63.7l12.2,0.7c0,0,12.4-41.8,10.7-58.4
				c13.6,0,44.9,1.2,49.4-11.1c2.3-6.2,3.4-12.9,3.2-19.5L290,250.5z"/>
		</g>
		<polygon class="st9" points="255.5,342.3 239.6,339.6 239.8,332.5 256.3,336.2 		"/>
		<polygon class="st18" points="217.1,357.6 209.4,354 214.8,335.3 224.2,340.4 		"/>
		<polygon class="st20" points="226.1,335.2 216.2,329.7 212.5,343.2 221.4,347.2 		"/>
		<path class="st6" d="M208.9,352.5l8.8,3.9c0.3,0.2,0.5,0.5,0.4,0.9l-2.8,8.5c-0.2,0.8-1.1,1.3-2,1.1c0,0,0,0,0,0
			c-3-1.4-4.4-2.3-8.3-4c-2.4-1.1-7.8-3.6-11.2-4.7s-2.1-5.1-0.5-5c6.9,0.6,11,0.4,14-0.7C207.8,352.3,208.4,352.3,208.9,352.5z"/>
		<path class="st9" d="M204.4,353.2c0.7,0.3,1.4,0.4,2.2,0.6c0.1,0,0.2,0,0.2-0.1c0-0.1,0-0.1,0-0.2c-0.2-0.3-1.8-2.7-2.9-2.7
			c-0.3,0-0.5,0.1-0.6,0.3c-0.3,0.3-0.3,0.7-0.2,1.1C203.4,352.7,203.9,353,204.4,353.2z M206.3,353.3c-1.5-0.4-2.6-0.8-2.8-1.3
			c-0.1-0.2,0-0.5,0.1-0.7c0.1-0.1,0.2-0.2,0.3-0.2C204.5,351.1,205.6,352.3,206.3,353.3z"/>
		<path class="st9" d="M206.6,353.7L206.6,353.7c0.2,0,0.2-0.1,0.3-0.1c0-0.1,1.1-2.3,0.7-3.4c-0.1-0.3-0.4-0.5-0.7-0.6
			c-0.3-0.1-0.7,0-0.9,0.3C205.4,350.7,206,352.8,206.6,353.7C206.5,353.7,206.6,353.7,206.6,353.7z M206.8,350.1
			c0.2,0.1,0.3,0.2,0.3,0.3c0.1,0.9-0.1,1.9-0.5,2.7c-0.5-0.9-0.6-2-0.4-3C206.3,350,206.5,349.9,206.8,350.1L206.8,350.1z"/>
		<path class="st9" d="M275.6,250.5c-0.3,0-50.9-4.9-54.3,23.8c-5.4,35.2-8.8,64.9-8.8,64.9l10.6,5.3c0,0,18.6-37.6,18.3-61.2
			c14.8-4.3,53.2,2.9,57.7-9.4c3.7-10.1,1.7-23.5,1.7-23.5H275.6z"/>
		<path class="st10" d="M275.6,250.5c-0.3,0-50.9-4.9-54.3,23.8c-5.4,35.2-8.8,64.9-8.8,64.9l10.6,5.3c0,0,18.6-37.6,18.3-61.2
			c14.8-4.3,53.2,2.9,57.7-9.4c3.7-10.1,1.7-23.5,1.7-23.5H275.6z"/>
		<polygon class="st9" points="224.9,346.1 210.6,339.6 211.8,333.8 226.9,339 		"/>
		<path class="st18" d="M300.1,188c1.1,3.2,2,6.2,3,9.3s1.6,6.3,2.3,9.5s1.2,6.5,1.6,9.8c0.4,3.5,0.5,7,0.1,10.5
			c-0.2,2.1-0.7,4.1-1.5,6c-0.5,1.2-1.1,2.3-1.9,3.3c-0.5,0.6-1,1.1-1.5,1.5l-0.5,0.4c-0.2,0.2-0.5,0.4-0.8,0.5
			c-0.4,0.2-0.9,0.4-1.4,0.6c-0.7,0.2-1.4,0.4-2.1,0.5c-0.6,0.1-1.2,0.1-1.7,0.1c-1,0-2-0.1-2.9-0.3c-1.7-0.2-3.4-0.6-5.1-1
			c-6.3-1.7-12.4-4.1-18.2-7l1.9-5.2c6,1.3,12.2,2.6,18,3.4c1.5,0.1,2.9,0.3,4.2,0.4c0.6,0,1.2,0,1.8-0.1c0.5,0,0.9-0.2,0.8-0.2
			l-0.3,0.1c-0.1,0.1-0.2,0.1-0.3,0.2l0,0l0.1-0.1c0.1-0.3,0.3-0.5,0.4-0.8c0.3-1,0.5-2.1,0.5-3.2c0.1-2.8-0.1-5.5-0.5-8.3
			c-0.4-2.9-1-5.8-1.7-8.8s-1.4-5.9-2.3-8.8s-1.8-5.9-2.6-8.7L300.1,188z"/>
		<path class="st18" d="M274,228.3l-6.1-4.1l-3.8,6.6c0,0,7.2,3.8,8.9,2L274,228.3z"/>
		<polygon class="st18" points="262.6,225 259.3,229.4 264.1,230.7 267.9,224.1 		"/>
		<path class="st18" d="M236.6,222.5l-8.9-1l-2.6,9.8c0,0,10.2,0.1,11.7-2.8L236.6,222.5z"/>
		<path class="st18" d="M221.1,225.1l-1.5,3.7c-0.4,0.9,0.1,1.9,0.9,2.2c0.2,0.1,0.4,0.1,0.6,0.1h4.1l2.6-9.8l-5.8,2.7
			C221.6,224.3,221.3,224.7,221.1,225.1z"/>
		<path class="st9" d="M313.8,186c-0.7-1.9-4.1-3.9-6.2-3.9h-1.4c-2.8,0-5.5,0.2-8.3,0.6c-5.5,0.6-11,1.5-16.4,2.8
			c-2.3,0.6-4.6,1.4-6.8,2.2h-0.1c-2.2,0.9-3.5,3.2-3.2,5.5c0.9,6.2,2.5,18.8,3.5,31.4c0.8,9.8,0.5,19.5,0.7,26.3h41.2
			c1.4-8,1.2-15.1,1.3-29.6C318.2,212.5,316.8,194,313.8,186z"/>
		<path class="st22" d="M313.8,186c-0.7-1.9-4.1-3.9-6.2-3.9h-1.4c-2.8,0-5.5,0.2-8.3,0.6c-5.5,0.6-11,1.5-16.4,2.8
			c-2.3,0.6-4.6,1.4-6.8,2.2h-0.1c-2.2,0.9-3.5,3.2-3.2,5.5c0.9,6.2,2.5,18.8,3.5,31.4c0.8,9.8,0.5,19.5,0.7,26.3h41.2
			c1.4-8,1.2-15.1,1.3-29.6C318.2,212.5,316.8,194,313.8,186z"/>
		<path class="st9" d="M278.3,188.2c3.3,1.3,5,5,3.8,8.3c0,0,0,0,0,0.1c-2.9,7.6-7.9,19.7-10.1,23.9c-0.8,1.5-1.7,3-2.6,4.5
			c-0.5,0.8-1,1.5-1.6,2.3c-0.3,0.4-0.6,0.8-0.9,1.2l-0.5,0.6l-0.3,0.3c-0.8,0.9-1.9,1.6-3,2c-0.6,0.2-1.2,0.4-1.8,0.6
			c-1,0.2-2.1,0.4-3.1,0.4c-1.8,0.1-3.6,0.1-5.4,0c-6.6-0.5-13.2-1.8-19.5-3.6l-0.7-6.8c6.3,0.2,12.7,0.4,18.7,0.1
			c1.4-0.1,2.8-0.2,4.2-0.5c0.6-0.1,1.1-0.2,1.7-0.4c0.2-0.1,0.3-0.1,0.5-0.2c0,0,0-0.1-0.3,0.1c-0.1,0.1-0.2,0.1-0.3,0.2l0.1-0.1
			l0.2-0.3c0.2-0.2,0.3-0.5,0.5-0.8c0.4-0.5,0.7-1.1,1.1-1.7c0.7-1.2,1.4-2.6,2-3.9c1.3-2.7,2.5-5.6,3.6-8.5
			c0.8-2.1,3.2-8.3,5.2-13.9C271.1,188.7,274.8,187,278.3,188.2C278.2,188.2,278.2,188.2,278.3,188.2L278.3,188.2z"/>
		<path class="st20" d="M274.1,214.7c0.3,3.7,0.2,2.5,0.5,6.4c10-15.5,6.7-25.8,6.7-25.8L274.1,214.7z"/>
		<path class="st22" d="M278.3,188.2c3.3,1.3,5,5,3.8,8.3c0,0,0,0,0,0.1c-2.9,7.6-7.9,19.7-10.1,23.9c-0.8,1.5-1.7,3-2.6,4.5
			c-0.5,0.8-1,1.5-1.6,2.3c-0.3,0.4-0.6,0.8-0.9,1.2l-0.5,0.6l-0.3,0.3c-0.8,0.9-1.9,1.6-3,2c-0.6,0.2-1.2,0.4-1.8,0.6
			c-1,0.2-2.1,0.4-3.1,0.4c-1.8,0.1-3.6,0.1-5.4,0c-6.6-0.5-13.2-1.8-19.5-3.6l-0.7-6.8c6.3,0.2,12.7,0.4,18.7,0.1
			c1.4-0.1,2.8-0.2,4.2-0.5c0.6-0.1,1.1-0.2,1.7-0.4c0.2-0.1,0.3-0.1,0.5-0.2c0,0,0-0.1-0.3,0.1c-0.1,0.1-0.2,0.1-0.3,0.2l0.1-0.1
			l0.2-0.3c0.2-0.2,0.3-0.5,0.5-0.8c0.4-0.5,0.7-1.1,1.1-1.7c0.7-1.2,1.4-2.6,2-3.9c1.3-2.7,2.5-5.6,3.6-8.5
			c0.8-2.1,3.2-8.3,5.2-13.9C271.1,188.7,274.8,187,278.3,188.2C278.2,188.2,278.2,188.2,278.3,188.2L278.3,188.2z"/>
		<path class="st6" d="M264.7,365.9c0,2.3-1.9,4.2-4.2,4.2s-4.2-1.9-4.2-4.2c0-2.3,1.9-4.2,4.2-4.2
			C262.9,361.7,264.7,363.5,264.7,365.9L264.7,365.9z"/>
		<path class="st6" d="M326.4,365.9c0,2.3,1.9,4.2,4.2,4.2s4.2-1.9,4.2-4.2c0-2.3-1.9-4.2-4.2-4.2
			C328.3,361.7,326.4,363.5,326.4,365.9L326.4,365.9z"/>
		<path class="st6" d="M290,364.5c0,2.3,1.9,4.2,4.2,4.2s4.2-1.9,4.2-4.2c0-2.3-1.9-4.2-4.2-4.2C291.9,360.3,290,362.2,290,364.5
			L290,364.5z"/>
		<path class="st6" d="M339.7,360.2c-0.2,1-1.1,1.7-2.1,1.6l-43.8-0.6l-41,0.9c-1.1,0.1-2.1-0.7-2.2-1.8s0.7-2.1,1.8-2.2l22.4-4.4
			c2.3-0.4,4.7-0.7,7-0.7h24.1c2.3,0,4.7,0.2,7,0.7l25.2,4c1.1,0.1,1.9,1.2,1.7,2.3C339.8,360.1,339.7,360.2,339.7,360.2z"/>
		<rect x="286.4" y="316.6" class="st6" width="14.9" height="42.9"/>
		<rect x="288.6" y="289.5" class="st6" width="10.6" height="27.4"/>
		<polygon class="st20" points="288.6,294.5 299.2,297.2 299.2,289.5 288.6,289.5 		"/>
		<rect x="249.4" y="250.4" class="st6" width="5.4" height="23"/>
		<rect x="249.4" y="250.4" class="st6" width="5.4" height="23"/>
		<path class="st6" d="M290.5,198.7c-0.1,0.6-0.2,1.3-0.1,1.9v88.8h-8.6v-88.8c0-0.1,0-0.1,0-0.2L290.5,198.7z"/>
		<path class="st6" d="M340.4,289.4v0.1H339C339.5,289.5,339.9,289.4,340.4,289.4z"/>
		<path class="st6" d="M349,198.2l-0.6-10.6c-0.2-3-1.4-5.8-3.5-7.9l-6.7-7l-3.5-17.6c-0.5-2.7-2.9-4.7-5.7-4.7h-15.5
			c-2.5,0-4.7,1.6-5.5,4l-6.5,18.9l-12.4,7.6c-3.2,1.9-5.3,5.2-5.9,8.9l-1.6,10.8h0.2l8.7-1.7c-0.1,0.6-0.2,1.3-0.1,1.9v88.8H339
			c0.5,0,1,0,1.5-0.1l0,0c4.9-0.7,8.6-4.9,8.6-9.9v-79.7C349,199.3,349,198.7,349,198.2L349,198.2z M307.9,191.5l-15,1.4l-0.7,0.1
			l1.6-6.9l10-4.9l3.3-1.6l0.7,1.6l0.1,0.3l0.6,1.5L307.9,191.5z M337.6,191.7L337.6,191.7l-1.9-0.5c-0.1-0.6-0.1-1.2-0.2-1.8
			c-0.4-3.3-0.8-6.4-0.8-6.4l0.1-1.1l0.3-2.3l7.1,6.5l0.1,1.5l0.4,5.3L337.6,191.7z"/>
		<path class="st6" d="M290.4,270.1v19.4h-56.5c-3.8,0-7-3.1-7-6.9c0-1.3,0.3-2.5,1-3.6c3.2-5.5,9.1-8.9,15.5-8.9H290.4z"/>
		<path class="st6" d="M270.4,257.4c-11.9-4.1-24.8-4.1-36.7,0c-2.5,0.9-5.2-0.1-6.4-2.5l0,0c-1.1-2.3,0.4-5.3,3.4-6.4
			c13.9-4.8,29-4.8,42.8,0c3,1,4.5,4.1,3.4,6.4l0,0C275.6,257.3,272.8,258.3,270.4,257.4z"/>
		<path class="st23" d="M270.4,257.4c-11.9-4.1-24.8-4.1-36.7,0c-2.5,0.9-5.2-0.1-6.4-2.5l0,0c-1.1-2.3,0.4-5.3,3.4-6.4
			c13.9-4.8,29-4.8,42.8,0c3,1,4.5,4.1,3.4,6.4l0,0C275.6,257.3,272.8,258.3,270.4,257.4z"/>
	</g>
</g>
</svg>
